<svg xmlns="http://www.w3.org/2000/svg" width="50" height="50" fill="none"><circle cx="25" cy="25" r="25" fill="#9873FF"/><path fill="#fff" d="M17.2617 29.082c0 1.0078-.3515 1.7754-1.0547 2.3028-.6972.5273-1.7431.791-3.1377.791-.7148 0-1.3242-.0498-1.8281-.1494-.5039-.0938-.9756-.2344-1.415-.4219v-2.2149c.498.2344 1.0576.4307 1.6787.5889.6269.1582 1.1777.2373 1.6523.2373.9727 0 1.459-.2812 1.459-.8437 0-.211-.0644-.3809-.1933-.5098-.129-.1348-.3516-.2842-.668-.4482-.3164-.17-.7383-.3662-1.2656-.5889-.7559-.3164-1.3125-.6094-1.67-.8789-.3515-.2695-.6093-.5772-.7734-.9229-.1582-.3515-.2373-.7822-.2373-1.292 0-.873.3369-1.5468 1.0107-2.0214.6797-.4805 1.6407-.7207 2.8828-.7207 1.1836 0 2.335.2578 3.4541.7734l-.8085 1.9336c-.4922-.2109-.9522-.3838-1.3799-.5186a4.3357 4.3357 0 0 0-1.3096-.2021c-.791 0-1.1865.2139-1.1865.6416 0 .2402.126.4482.3779.624.2578.1758.8174.4365 1.6787.7822.7676.3106 1.3301.6006 1.6875.8702.3574.2695.6211.58.791.9316.17.3516.2549.7705.2549 1.2568Zm4.667-2.4258 1.169-1.4941 2.7509-2.9883h3.0235l-3.9024 4.2627L29.1094 32h-3.0938l-2.8301-3.9814-1.1513.9228V32h-2.6807V18.3242h2.6807v6.0996l-.1406 2.2324h.0351Zm14.0537-4.6669c1.1602 0 2.0684.4541 2.7246 1.3623.6563.9023.9844 2.1416.9844 3.7177 0 1.6231-.3398 2.8799-1.0195 3.7705-.6739.8907-1.5938 1.336-2.7598 1.336-1.1543 0-2.0596-.419-2.7158-1.2569h-.1846L32.5635 32h-2.0479V18.3242h2.6807v3.1817c0 .4043-.0352 1.0517-.1055 1.9423h.1055c.6269-.9726 1.5557-1.4589 2.7861-1.4589Zm-.8613 2.1445c-.6621 0-1.1455.2051-1.4502.6152-.3047.4043-.4629 1.0752-.4746 2.0127v.2901c0 1.0546.1553 1.8105.4658 2.2675.3164.4571.8145.6856 1.4941.6856.5508 0 .9874-.252 1.3096-.7559.3281-.5097.4922-1.248.4922-2.2148 0-.9668-.1641-1.6904-.4922-2.1709-.3281-.4863-.7763-.7295-1.3447-.7295Zm6.4072 6.6094c0-.4922.1319-.8643.3955-1.1162.2637-.252.6475-.378 1.1514-.378.4863 0 .8613.1289 1.125.3867.2695.2579.4043.627.4043 1.1075 0 .4629-.1348.8291-.4043 1.0986-.2695.2637-.6445.3955-1.125.3955-.4922 0-.8731-.1289-1.1426-.3867-.2695-.2637-.4043-.6328-.4043-1.1074Z"/></svg>