<svg xmlns="http://www.w3.org/2000/svg" width="16" height="16" fill="none"><path fill="#9873FF" fill-rule="evenodd" d="M8 16c4.4183 0 8-3.5817 8-8s-3.5817-8-8-8-8 3.5817-8 8 3.5817 8 8 8ZM4 5.75c0-.4125.36-.75.8-.75h6.4c.44 0 .8.3375.8.75v4.5c0 .4125-.36.75-.8.75H4.8c-.44 0-.8-.3375-.8-.75v-4.5Zm4.424 2.3775 2.616-1.5337c.1-.06.16-.1613.16-.27 0-.2513-.292-.4013-.52-.27L8 7.625 5.32 6.0537c-.228-.1312-.52.0188-.52.27 0 .1088.06.21.16.27l2.616 1.5338c.26.1538.588.1538.848 0Z" clip-rule="evenodd" opacity=".7"/></svg>