<svg xmlns="http://www.w3.org/2000/svg" width="16" height="16" fill="none"><g opacity=".7"><circle cx="8" cy="8" r="8" fill="#9873FF"/><path fill="#fff" d="M11.56 9.5022a5.0854 5.0854 0 0 1-1.5689-.2489C9.8356 9.2 9.6622 9.24 9.5422 9.36l-.6978.8756C7.5867 9.6356 6.409 8.5022 5.7822 7.2l.8667-.7378a.4536.4536 0 0 0 .1067-.4533c-.1645-.4933-.249-1.0222-.249-1.5689 0-.24-.2-.44-.44-.44H4.529C4.2889 4 4 4.1067 4 4.44 4 8.5689 7.4356 12 11.56 12c.3156 0 .44-.28.44-.5244V9.9422c0-.24-.2-.44-.44-.44Z"/></g></svg>