<svg xmlns="http://www.w3.org/2000/svg" width="16" height="16" fill="none"><path fill="#9873FF" d="M8 0C3.5819 0 0 3.5817 0 8s3.5819 8 8 8 8-3.5817 8-8-3.5819-8-8-8Zm4.058 8.8652c.3729.3642.7674.707 1.1021 1.1088.1483.1778.2881.3616.3945.5683.1519.2948.0147.6181-.2491.6356l-1.639-.0003c-.4233.035-.7601-.1357-1.0441-.4251-.2267-.2306-.4371-.477-.6554-.7155-.0892-.0979-.1832-.19-.2951-.2625-.2235-.1454-.4176-.1008-.5456.1326-.1304.2375-.1602.5007-.1727.765-.0178.3865-.1344.4875-.5221.5056-.8286.0388-1.6148-.0869-2.3454-.5046-.6446-.3684-1.1435-.8885-1.5783-1.4772C3.6613 8.048 3.013 6.7884 2.4304 5.4925c-.1312-.2918-.0352-.448.2867-.454A45.5902 45.5902 0 0 1 4.322 5.038c.2177.0034.3617.128.4454.3334.289.7112.6434 1.3879 1.0875 2.0154.1183.1672.2391.3338.4111.4518.19.1303.3346.0873.4242-.1247.0572-.1347.082-.2788.0944-.4231.0425-.4945.0476-.9889-.026-1.4814-.0459-.3082-.2192-.5072-.5264-.5655-.1565-.0296-.1336-.0876-.0575-.177.1321-.1545.2559-.25.5032-.25l1.8517-.0004c.2919.0573.3573.1883.397.4822l.0016 2.0579c-.0035.1137.0571.451.2614.5254.1637.054.2717-.0773.3696-.1809.4441-.4712.7604-1.0274 1.0438-1.603.125-.254.2329-.5167.3377-.7799.0779-.1946.199-.2904.4187-.287l1.7831.002c.0526 0 .1059.0005.158.0095.3005.0514.3828.1807.2899.4739-.1464.4606-.4307.8443-.7086 1.229-.2979.4118-.6156.8092-.9106 1.2228-.271.3781-.2496.5685.0869.8968Z" opacity=".7"/></svg>