<svg xmlns="http://www.w3.org/2000/svg">
	<symbol id="icon-header-logo" viewBox="0 0 50 50" fill="none" xmlns="http://www.w3.org/2000/svg">
		<circle cx="25" cy="25" r="25" fill="#9873FF" />
		<path fill="#fff" d="M17.2617 29.082c0 1.0078-.3515 1.7754-1.0547 2.3028-.6972.5273-1.7431.791-3.1377.791-.7148 0-1.3242-.0498-1.8281-.1494-.5039-.0938-.9756-.2344-1.415-.4219v-2.2149c.498.2344 1.0576.4307 1.6787.5889.6269.1582 1.1777.2373 1.6523.2373.9727 0 1.459-.2812 1.459-.8437 0-.211-.0644-.3809-.1933-.5098-.129-.1348-.3516-.2842-.668-.4482-.3164-.17-.7383-.3662-1.2656-.5889-.7559-.3164-1.3125-.6094-1.67-.8789-.3515-.2695-.6093-.5772-.7734-.9229-.1582-.3515-.2373-.7822-.2373-1.292 0-.873.3369-1.5468 1.0107-2.0214.6797-.4805 1.6407-.7207 2.8828-.7207 1.1836 0 2.335.2578 3.4541.7734l-.8085 1.9336c-.4922-.2109-.9522-.3838-1.3799-.5186a4.3357 4.3357 0 0 0-1.3096-.2021c-.791 0-1.1865.2139-1.1865.6416 0 .2402.126.4482.3779.624.2578.1758.8174.4365 1.6787.7822.7676.3106 1.3301.6006 1.6875.8702.3574.2695.6211.58.791.9316.17.3516.2549.7705.2549 1.2568Zm4.667-2.4258 1.169-1.4941 2.7509-2.9883h3.0235l-3.9024 4.2627L29.1094 32h-3.0938l-2.8301-3.9814-1.1513.9228V32h-2.6807V18.3242h2.6807v6.0996l-.1406 2.2324h.0351Zm14.0537-4.6669c1.1602 0 2.0684.4541 2.7246 1.3623.6563.9023.9844 2.1416.9844 3.7177 0 1.6231-.3398 2.8799-1.0195 3.7705-.6739.8907-1.5938 1.336-2.7598 1.336-1.1543 0-2.0596-.419-2.7158-1.2569h-.1846L32.5635 32h-2.0479V18.3242h2.6807v3.1817c0 .4043-.0352 1.0517-.1055 1.9423h.1055c.6269-.9726 1.5557-1.4589 2.7861-1.4589Zm-.8613 2.1445c-.6621 0-1.1455.2051-1.4502.6152-.3047.4043-.4629 1.0752-.4746 2.0127v.2901c0 1.0546.1553 1.8105.4658 2.2675.3164.4571.8145.6856 1.4941.6856.5508 0 .9874-.252 1.3096-.7559.3281-.5097.4922-1.248.4922-2.2148 0-.9668-.1641-1.6904-.4922-2.1709-.3281-.4863-.7763-.7295-1.3447-.7295Zm6.4072 6.6094c0-.4922.1319-.8643.3955-1.1162.2637-.252.6475-.378 1.1514-.378.4863 0 .8613.1289 1.125.3867.2695.2579.4043.627.4043 1.1075 0 .4629-.1348.8291-.4043 1.0986-.2695.2637-.6445.3955-1.125.3955-.4922 0-.8731-.1289-1.1426-.3867-.2695-.2637-.4043-.6328-.4043-1.1074Z" />
	</symbol>
	<symbol id="arrow-icon" fill="none" xmlns="http://www.w3.org/2000/svg">
		<path fill="#9873FF" d="m2 6 .705.705L5.5 3.915V10h1V3.915L9.29 6.71 10 6 6 2 2 6Z" />
	</symbol>
	<symbol id="edit-icon" fill="none" xmlns="http://www.w3.org/2000/svg">
		<g clip-path="url(#a)" opacity=".7">
			<path fill="#9873FF" d="M2 11.5V14h2.5l7.3733-7.3734-2.5-2.5L2 11.5Zm11.8067-6.8067c.26-.26.26-.68 0-.94l-1.56-1.56a.664.664 0 0 0-.94 0l-1.22 1.22 2.5 2.5 1.22-1.22Z" />
		</g>
		<defs>
			<clipPath id="a">
				<path fill="#fff" d="M0 0h16v16H0z" />
			</clipPath>
		</defs>
	</symbol>
	<symbol id="cancel-icon" fill="none" xmlns="http://www.w3.org/2000/svg">
		<g clip-path="url(#a)" opacity=".7">
			<path fill="#F06A4D" d="M8 2C4.682 2 2 4.682 2 8s2.682 6 6 6 6-2.682 6-6-2.682-6-6-6Zm0 10.8c-2.646 0-4.8-2.154-4.8-4.8S5.354 3.2 8 3.2s4.8 2.154 4.8 4.8-2.154 4.8-4.8 4.8ZM10.154 5 8 7.154 5.846 5 5 5.846 7.154 8 5 10.154l.846.846L8 8.846 10.154 11l.846-.846L8.846 8 11 5.846 10.154 5Z" />
		</g>
		<defs>
			<clipPath id="a">
				<path fill="#fff" d="M0 0h16v16H0z" />
			</clipPath>
		</defs>
	</symbol>
	<symbol id="fb-icon" fill="none" xmlns="http://www.w3.org/2000/svg">
		<path fill="currentColor" d="M8 0C3.6 0 0 3.6064 0 8.0482 0 12.0643 2.928 15.3976 6.752 16v-5.6225H4.72V8.0482h2.032V6.273c0-2.016 1.192-3.1245 3.024-3.1245.872 0 1.784.1526 1.784.1526v1.984h-1.008c-.992 0-1.304.6184-1.304 1.253v1.51h2.224l-.36 2.3293H9.248V16a7.992 7.992 0 0 0 4.8399-2.7228A8.0513 8.0513 0 0 0 16 8.0482C16 3.6064 12.4 0 8 0Z" />
	</symbol>
	<symbol id="mail-icon" fill="none" xmlns="http://www.w3.org/2000/svg">
		<path fill="currentColor" fill-rule="evenodd" d="M8 16c4.4183 0 8-3.5817 8-8s-3.5817-8-8-8-8 3.5817-8 8 3.5817 8 8 8ZM4 5.75c0-.4125.36-.75.8-.75h6.4c.44 0 .8.3375.8.75v4.5c0 .4125-.36.75-.8.75H4.8c-.44 0-.8-.3375-.8-.75v-4.5Zm4.424 2.3775 2.616-1.5337c.1-.06.16-.1613.16-.27 0-.2513-.292-.4013-.52-.27L8 7.625 5.32 6.0537c-.228-.1312-.52.0188-.52.27 0 .1088.06.21.16.27l2.616 1.5338c.26.1538.588.1538.848 0Z" clip-rule="evenodd" />
	</symbol>
	<symbol id="phone-icon" fill="none" xmlns="http://www.w3.org/2000/svg">
		<g>
			<circle cx="8" cy="8" r="8" fill="currentColor" />
			<path fill="#fff" d="M11.56 9.5022a5.0854 5.0854 0 0 1-1.5689-.2489C9.8356 9.2 9.6622 9.24 9.5422 9.36l-.6978.8756C7.5867 9.6356 6.409 8.5022 5.7822 7.2l.8667-.7378a.4536.4536 0 0 0 .1067-.4533c-.1645-.4933-.249-1.0222-.249-1.5689 0-.24-.2-.44-.44-.44H4.529C4.2889 4 4 4.1067 4 4.44 4 8.5689 7.4356 12 11.56 12c.3156 0 .44-.28.44-.5244V9.9422c0-.24-.2-.44-.44-.44Z" />
		</g>
	</symbol>
	<symbol id="vk-icon" fill="none" xmlns="http://www.w3.org/2000/svg">
		<path fill="currentColor" d="M8 0C3.5819 0 0 3.5817 0 8s3.5819 8 8 8 8-3.5817 8-8-3.5819-8-8-8Zm4.058 8.8652c.3729.3642.7674.707 1.1021 1.1088.1483.1778.2881.3616.3945.5683.1519.2948.0147.6181-.2491.6356l-1.639-.0003c-.4233.035-.7601-.1357-1.0441-.4251-.2267-.2306-.4371-.477-.6554-.7155-.0892-.0979-.1832-.19-.2951-.2625-.2235-.1454-.4176-.1008-.5456.1326-.1304.2375-.1602.5007-.1727.765-.0178.3865-.1344.4875-.5221.5056-.8286.0388-1.6148-.0869-2.3454-.5046-.6446-.3684-1.1435-.8885-1.5783-1.4772C3.6613 8.048 3.013 6.7884 2.4304 5.4925c-.1312-.2918-.0352-.448.2867-.454A45.5902 45.5902 0 0 1 4.322 5.038c.2177.0034.3617.128.4454.3334.289.7112.6434 1.3879 1.0875 2.0154.1183.1672.2391.3338.4111.4518.19.1303.3346.0873.4242-.1247.0572-.1347.082-.2788.0944-.4231.0425-.4945.0476-.9889-.026-1.4814-.0459-.3082-.2192-.5072-.5264-.5655-.1565-.0296-.1336-.0876-.0575-.177.1321-.1545.2559-.25.5032-.25l1.8517-.0004c.2919.0573.3573.1883.397.4822l.0016 2.0579c-.0035.1137.0571.451.2614.5254.1637.054.2717-.0773.3696-.1809.4441-.4712.7604-1.0274 1.0438-1.603.125-.254.2329-.5167.3377-.7799.0779-.1946.199-.2904.4187-.287l1.7831.002c.0526 0 .1059.0005.158.0095.3005.0514.3828.1807.2899.4739-.1464.4606-.4307.8443-.7086 1.229-.2979.4118-.6156.8092-.9106 1.2228-.271.3781-.2496.5685.0869.8968Z" />
	</symbol>
	<symbol id="add-user-icon" viewBox="0 0 23 16" fill="none" xmlns="http://www.w3.org/2000/svg">
		<path d="M14.5 8C16.71 8 18.5 6.21 18.5 4C18.5 1.79 16.71 0 14.5 0C12.29 0 10.5 1.79 10.5 4C10.5 6.21 12.29 8 14.5 8ZM5.5 6V3H3.5V6H0.5V8H3.5V11H5.5V8H8.5V6H5.5ZM14.5 10C11.83 10 6.5 11.34 6.5 14V16H22.5V14C22.5 11.34 17.17 10 14.5 10Z" fill="currentColor" />
	</symbol>
	<symbol id="plus-icon" viewBox="0 0 16 16" fill="none" xmlns="http://www.w3.org/2000/svg">
		<g clip-path="url(#clip0_121_884)">
			<path d="M8.00001 4.66659C7.63334 4.66659 7.33334 4.96659 7.33334 5.33325V7.33325H5.33334C4.96668 7.33325 4.66668 7.63325 4.66668 7.99992C4.66668 8.36659 4.96668 8.66659 5.33334 8.66659H7.33334V10.6666C7.33334 11.0333 7.63334 11.3333 8.00001 11.3333C8.36668 11.3333 8.66668 11.0333 8.66668 10.6666V8.66659H10.6667C11.0333 8.66659 11.3333 8.36659 11.3333 7.99992C11.3333 7.63325 11.0333 7.33325 10.6667 7.33325H8.66668V5.33325C8.66668 4.96659 8.36668 4.66659 8.00001 4.66659ZM8.00001 1.33325C4.32001 1.33325 1.33334 4.31992 1.33334 7.99992C1.33334 11.6799 4.32001 14.6666 8.00001 14.6666C11.68 14.6666 14.6667 11.6799 14.6667 7.99992C14.6667 4.31992 11.68 1.33325 8.00001 1.33325ZM8.00001 13.3333C5.06001 13.3333 2.66668 10.9399 2.66668 7.99992C2.66668 5.05992 5.06001 2.66659 8.00001 2.66659C10.94 2.66659 13.3333 5.05992 13.3333 7.99992C13.3333 10.9399 10.94 13.3333 8.00001 13.3333Z" fill="currentColor" />
		</g>
		<defs>
			<clipPath id="clip0_121_884">
				<rect width="16" height="16" fill="white" />
			</clipPath>
		</defs>
	</symbol>
	<symbol id="user-icon" xmlns="http://www.w3.org/2000/svg" fill="none">
		<path fill="#9873FF" fill-rule="evenodd" d="M8 16c4.4183 0 8-3.5817 8-8s-3.5817-8-8-8-8 3.5817-8 8 3.5817 8 8 8ZM3 8c0-2.76 2.24-5 5-5s5 2.24 5 5-2.24 5-5 5-5-2.24-5-5Zm6.5-2c0-.83-.67-1.5-1.5-1.5S6.5 5.17 6.5 6 7.17 7.5 8 7.5 9.5 6.83 9.5 6ZM5 9.99c.645.97 1.75 1.61 3 1.61s2.355-.64 3-1.61c-.015-.995-2.005-1.54-3-1.54-1 0-2.985.545-3 1.54Z" clip-rule="evenodd" />
	</symbol>
</svg>
